<svg xmlns="http://www.w3.org/2000/svg" width="447.213" height="117.783" viewBox="0 0 447.213 117.783">
  <g id="グループ_178" data-name="グループ 178" transform="translate(-7465.363 13012.188)">
    <path id="パス_105" data-name="パス 105" d="M-222.373,0V-2.412a19.676,19.676,0,0,1,1-6.2,23.463,23.463,0,0,1,3.384-6.332,53.621,53.621,0,0,1,6.465-7.169q2.01-1.943,3.819-3.886a23.011,23.011,0,0,0,2.948-3.852,7.675,7.675,0,0,0,1.206-3.585,6.45,6.45,0,0,0-1.374-4.69,5.455,5.455,0,0,0-4.187-1.541,4.228,4.228,0,0,0-3.886,1.943,10.443,10.443,0,0,0-1.206,5.494h-7.973q0-7.169,3.651-11.122a12.235,12.235,0,0,1,9.413-3.953,14.788,14.788,0,0,1,7,1.641,11.939,11.939,0,0,1,4.891,4.757,14.4,14.4,0,0,1,1.642,7.672,12.928,12.928,0,0,1-1.441,5.829,24.361,24.361,0,0,1-3.685,5.125q-2.312,2.513-5.327,5.393-2.881,2.881-5.125,5.427A11.315,11.315,0,0,0-213.8-7.3h17.286V0Zm45.359.67q-5.494,0-8.576-2.747a14.878,14.878,0,0,1-4.288-8.107,61.643,61.643,0,0,1-1.206-13.266,62.024,62.024,0,0,1,1.206-13.333,14.878,14.878,0,0,1,4.288-8.107q3.082-2.747,8.576-2.747t8.509,2.747a15.3,15.3,0,0,1,4.254,8.107,60.4,60.4,0,0,1,1.24,13.333,60.031,60.031,0,0,1-1.24,13.266,15.3,15.3,0,0,1-4.254,8.107Q-171.52.67-177.014.67Zm0-7.638a4.6,4.6,0,0,0,3.585-1.44,9.911,9.911,0,0,0,1.876-5.025,67.663,67.663,0,0,0,.57-10.016,68.382,68.382,0,0,0-.57-10.05q-.57-3.618-1.876-5.059A4.6,4.6,0,0,0-177.014-40a4.7,4.7,0,0,0-3.618,1.44q-1.34,1.441-1.91,5.059a68.382,68.382,0,0,0-.57,10.05,67.663,67.663,0,0,0,.57,10.016q.569,3.584,1.91,5.025A4.7,4.7,0,0,0-177.014-6.968ZM-158.589,0V-2.412a19.676,19.676,0,0,1,1-6.2,23.463,23.463,0,0,1,3.384-6.332,53.621,53.621,0,0,1,6.465-7.169q2.01-1.943,3.819-3.886a23.011,23.011,0,0,0,2.948-3.852,7.675,7.675,0,0,0,1.206-3.585,6.45,6.45,0,0,0-1.374-4.69,5.455,5.455,0,0,0-4.187-1.541,4.228,4.228,0,0,0-3.886,1.943,10.443,10.443,0,0,0-1.206,5.494h-7.973q0-7.169,3.651-11.122a12.235,12.235,0,0,1,9.413-3.953,14.788,14.788,0,0,1,7,1.641,11.939,11.939,0,0,1,4.891,4.757,14.4,14.4,0,0,1,1.642,7.672A12.928,12.928,0,0,1-133.23-27.4a24.361,24.361,0,0,1-3.685,5.125q-2.312,2.513-5.327,5.393-2.881,2.881-5.125,5.427A11.315,11.315,0,0,0-150.013-7.3h17.286V0Zm30.15,0V-2.412a19.676,19.676,0,0,1,1-6.2,23.463,23.463,0,0,1,3.383-6.332,53.622,53.622,0,0,1,6.465-7.169q2.01-1.943,3.819-3.886a23.011,23.011,0,0,0,2.948-3.852,7.675,7.675,0,0,0,1.206-3.585,6.45,6.45,0,0,0-1.373-4.69,5.455,5.455,0,0,0-4.187-1.541,4.228,4.228,0,0,0-3.886,1.943,10.443,10.443,0,0,0-1.206,5.494h-7.973q0-7.169,3.651-11.122a12.235,12.235,0,0,1,9.414-3.953,14.788,14.788,0,0,1,7,1.641,11.939,11.939,0,0,1,4.891,4.757,14.4,14.4,0,0,1,1.642,7.672,12.928,12.928,0,0,1-1.44,5.829,24.361,24.361,0,0,1-3.685,5.125q-2.312,2.513-5.327,5.393-2.881,2.881-5.125,5.427A11.315,11.315,0,0,0-119.863-7.3h17.286V0Zm37.252.737A5.24,5.24,0,0,1-95.04-.838a5.161,5.161,0,0,1-1.575-3.785A5.24,5.24,0,0,1-95.04-8.476a5.24,5.24,0,0,1,3.853-1.575,5.273,5.273,0,0,1,3.819,1.575A5.185,5.185,0,0,1-85.76-4.623,5.108,5.108,0,0,1-87.368-.838,5.273,5.273,0,0,1-91.187.737ZM-70.35,0V-36.716l-7.839,5.226-4.221-6.834,13.936-8.643h6.1V0Zm32.7.67q-5.494,0-8.576-2.747a14.878,14.878,0,0,1-4.288-8.107A61.643,61.643,0,0,1-51.724-23.45a62.024,62.024,0,0,1,1.206-13.333A14.878,14.878,0,0,1-46.23-44.89q3.082-2.747,8.576-2.747t8.509,2.747a15.3,15.3,0,0,1,4.254,8.107,60.4,60.4,0,0,1,1.24,13.333,60.031,60.031,0,0,1-1.24,13.266,15.3,15.3,0,0,1-4.254,8.107Q-32.16.67-37.654.67Zm0-7.638a4.6,4.6,0,0,0,3.584-1.44,9.911,9.911,0,0,0,1.876-5.025,67.663,67.663,0,0,0,.57-10.016,68.382,68.382,0,0,0-.57-10.05q-.569-3.618-1.876-5.059A4.6,4.6,0,0,0-37.654-40a4.7,4.7,0,0,0-3.618,1.44q-1.34,1.441-1.91,5.059a68.382,68.382,0,0,0-.569,10.05,67.664,67.664,0,0,0,.569,10.016q.57,3.584,1.91,5.025A4.7,4.7,0,0,0-37.654-6.968Zm25.527,7.7A5.24,5.24,0,0,1-15.98-.838a5.161,5.161,0,0,1-1.574-3.785A5.24,5.24,0,0,1-15.98-8.476a5.24,5.24,0,0,1,3.852-1.575A5.273,5.273,0,0,1-8.308-8.476,5.185,5.185,0,0,1-6.7-4.623,5.108,5.108,0,0,1-8.308-.838,5.273,5.273,0,0,1-12.127.737ZM11.189.67A13.955,13.955,0,0,1,2.881-1.809,14.106,14.106,0,0,1-2.211-9.246l7.37-2.412A17.629,17.629,0,0,0,6.03-9.882a6.334,6.334,0,0,0,1.809,2.01,5.114,5.114,0,0,0,3.149.9,7.657,7.657,0,0,0,4.924-1.474q1.843-1.474,1.843-5.226a7.574,7.574,0,0,0-1.775-5.26A6.708,6.708,0,0,0,10.72-20.9H7.035v-7.3H10.72q3.149,0,4.523-1.809A7.208,7.208,0,0,0,16.616-34.5q0-3.149-1.742-4.322A6.805,6.805,0,0,0,10.988-40a4.051,4.051,0,0,0-2.714.938,7.577,7.577,0,0,0-1.742,2.077,16.724,16.724,0,0,0-.9,1.809l-7.236-2.948a15.4,15.4,0,0,1,5.125-7,12.54,12.54,0,0,1,7.671-2.513,15.436,15.436,0,0,1,7.236,1.608,12,12,0,0,1,4.824,4.489,12.694,12.694,0,0,1,1.742,6.7,10.8,10.8,0,0,1-1.809,6.131,10.977,10.977,0,0,1-4.556,3.986,11.286,11.286,0,0,1,5.36,4.355,12.294,12.294,0,0,1,2.077,7.035q0,6.5-3.986,10.251T11.189.67ZM40.937,0V-36.716L33.1-31.49l-4.221-6.834,13.936-8.643h6.1V0ZM60.769-11.993v-8.643H82.544v8.643ZM98.624,0V-36.716L90.785-31.49l-4.221-6.834L100.5-46.967h6.1V0ZM126.5,0V-36.716l-7.839,5.226-4.221-6.834,13.936-8.643h6.1V0Zm24.589.737a5.24,5.24,0,0,1-3.852-1.575,5.161,5.161,0,0,1-1.574-3.785,5.24,5.24,0,0,1,1.574-3.853,5.24,5.24,0,0,1,3.852-1.575A5.273,5.273,0,0,1,154.9-8.476a5.185,5.185,0,0,1,1.608,3.853A5.108,5.108,0,0,1,154.9-.838,5.273,5.273,0,0,1,151.085.737ZM161.537,0V-2.412a19.676,19.676,0,0,1,1-6.2,23.463,23.463,0,0,1,3.384-6.332,53.621,53.621,0,0,1,6.465-7.169Q174.4-24.053,176.21-26a23.011,23.011,0,0,0,2.948-3.852,7.675,7.675,0,0,0,1.206-3.585,6.45,6.45,0,0,0-1.374-4.69,5.455,5.455,0,0,0-4.187-1.541,4.228,4.228,0,0,0-3.886,1.943,10.443,10.443,0,0,0-1.206,5.494h-7.973q0-7.169,3.651-11.122A12.235,12.235,0,0,1,174.8-47.3a14.788,14.788,0,0,1,7,1.641A11.939,11.939,0,0,1,186.7-40.9a14.4,14.4,0,0,1,1.642,7.672A12.928,12.928,0,0,1,186.9-27.4a24.361,24.361,0,0,1-3.685,5.125q-2.312,2.513-5.327,5.393Q175-14,172.76-11.457A11.315,11.315,0,0,0,170.113-7.3H187.4V0ZM207.03.67a14.511,14.511,0,0,1-7.4-1.842,13.056,13.056,0,0,1-4.992-5.159A15.767,15.767,0,0,1,192.826-14a11.608,11.608,0,0,1,1.775-6.264,13.366,13.366,0,0,1,4.255-4.389,13.279,13.279,0,0,1-3.484-3.886,10.741,10.741,0,0,1-1.407-5.628,14.252,14.252,0,0,1,1.675-7.035,12.2,12.2,0,0,1,4.623-4.723,13.248,13.248,0,0,1,6.767-1.708,13.382,13.382,0,0,1,6.834,1.708,12.205,12.205,0,0,1,4.623,4.723,14.252,14.252,0,0,1,1.675,7.035,10.546,10.546,0,0,1-1.44,5.628,14.185,14.185,0,0,1-3.451,3.886,12.823,12.823,0,0,1,4.288,4.389A11.774,11.774,0,0,1,221.3-14,15.487,15.487,0,0,1,219.458-6.3,13.282,13.282,0,0,1,214.4-1.173,14.56,14.56,0,0,1,207.03.67Zm0-7.638a5.939,5.939,0,0,0,4.69-1.742q1.541-1.742,1.541-5.427a8.294,8.294,0,0,0-1.541-5.293,5.622,5.622,0,0,0-4.69-1.943,5.64,5.64,0,0,0-4.657,1.943,8.171,8.171,0,0,0-1.574,5.293q0,3.685,1.574,5.427A5.958,5.958,0,0,0,207.03-6.968Zm0-20.7q5.092,0,5.092-6.365a6.088,6.088,0,0,0-1.474-4.523A4.978,4.978,0,0,0,207.03-40a4.978,4.978,0,0,0-3.618,1.44,6.088,6.088,0,0,0-1.474,4.523Q201.938-27.671,207.03-27.671Z" transform="matrix(0.995, -0.105, 0.105, 0.995, 7692.411, -12918.383)" fill="#6b5c54"/>
    <path id="パス_104" data-name="パス 104" d="M-45.5,2.592q-.072-.9-.252-2.106a8.113,8.113,0,0,0-.5-1.962h2.412a1.318,1.318,0,0,0,.954-.252,1.329,1.329,0,0,0,.234-.9V-17.172H-52.74v-12.1h14.148V-1.08a3.567,3.567,0,0,1-.99,2.772,4.721,4.721,0,0,1-3.222.9Zm-23.832.036v-31.9H-55.26v12.1H-65.268v19.8Zm6.84-.252A11.853,11.853,0,0,0-63.414.864a6.552,6.552,0,0,0-1.17-1.3A12.843,12.843,0,0,0-60.84-2.718a6.008,6.008,0,0,0,1.656-3.366H-63.72V-9.432h4.752V-12.24H-62.64v-3.132h17.424v3.132h-3.528v2.808h4.572v3.348h-4.572v7.92h-3.78v-7.92h-2.988A10.412,10.412,0,0,1-57.87-.756,12.325,12.325,0,0,1-62.5,2.376Zm13.68-22.5h6.156v-1.8h-6.156Zm0-4.392h6.156v-1.8h-6.156Zm-16.452,4.392h6.084v-1.8h-6.084Zm0-4.392h6.084v-1.8h-6.084ZM-55.3-9.432h2.772V-12.24H-55.3Zm24.948,12.06V-14.436q-.864,1.3-1.728,2.376a10.989,10.989,0,0,0-1.674-1.206q-.99-.594-1.818-1.062a24.309,24.309,0,0,0,2.52-3.51,40.077,40.077,0,0,0,2.232-4.284,46.122,46.122,0,0,0,1.71-4.374,27.5,27.5,0,0,0,.99-3.744l4.212.828q-.468,1.8-1.062,3.582t-1.278,3.51v10.152a21.839,21.839,0,0,0,2.322-2.682Q-22.788-16.38-21.8-18a25.1,25.1,0,0,0,1.6-3.024h-2.88v-8.244h4.068V-24.3h3.744v-5.94h4.1v5.94h4.032v-4.824H-3.06v8.1H-11.3l3.06.972A15.519,15.519,0,0,1-8.928-18.5q-.432.864-.9,1.692H-2.3v3.2H-9.936v2.052h6.084v3.168H-9.936v2.052h6.084v3.2H-9.936V-1.08h7.7V2.16H-22.464V-10.584q-.468.5-.9.954t-.828.846a11.1,11.1,0,0,0-.864-1.008,9.868,9.868,0,0,0-1.188-1.08v13.5Zm12.312-19.44h3.852q.54-1.008,1.08-2.16t.864-2.052h-6.336l2.268.936q-.324.756-.774,1.584T-18.036-16.812ZM-18.324-1.08h4.248V-3.132h-4.248Zm0-5.256h4.248V-8.388h-4.248Zm0-5.22h4.248v-2.052h-4.248ZM18.792,2.988A10.932,10.932,0,0,0,17.3,1.638,15.1,15.1,0,0,0,15.516.432a12.01,12.01,0,0,0,3.132-3.15,12.137,12.137,0,0,0,1.71-4.392,33.212,33.212,0,0,0,.522-6.39V-28.8H33.012V-1.08a3.763,3.763,0,0,1-1.026,2.916,4.928,4.928,0,0,1-3.366.936H26.028A15,15,0,0,0,25.668.63a11,11,0,0,0-.612-1.962h2.376a1.613,1.613,0,0,0,1.116-.306,1.2,1.2,0,0,0,.324-.918V-9.5h-4.1A21.846,21.846,0,0,1,22.95-2.142,14.028,14.028,0,0,1,18.792,2.988ZM15.012-.144q-.5-.792-1.242-1.728T12.24-3.654a17.516,17.516,0,0,0-1.476-1.422l2.448-2.088H1.44v-3.348H4.428V-22.86H1.692v-3.456H4.428v-3.492h4.14v3.492h4.1v-3.492h4.14v3.492H19.26v3.456H16.812v12.348h2.772v3.348H13.752a17.432,17.432,0,0,1,1.494,1.35q.81.81,1.566,1.656A13.869,13.869,0,0,1,18-2.664q-.324.216-.918.666t-1.17.954A7.888,7.888,0,0,0,15.012-.144ZM3.312,2.412A13.873,13.873,0,0,0,1.854.954,9.286,9.286,0,0,0,.324-.18,11.649,11.649,0,0,0,1.782-1.35q.846-.774,1.746-1.728T5.2-5A12.574,12.574,0,0,0,6.408-6.768L9.792-4.752A22.975,22.975,0,0,1,7.848-2.07Q6.7-.684,5.49.5A21.067,21.067,0,0,1,3.312,2.412Zm21.6-15.372h3.96v-4.392h-3.96Zm0-7.884h3.96v-4.392h-3.96ZM8.568-10.512h4.1v-2.232h-4.1Zm0-10.116h4.1V-22.86h-4.1Zm0,5h4.1v-2.16h-4.1ZM62.352,2.484a11.408,11.408,0,0,0-.18-1.35Q62.028.36,61.848-.378a6.754,6.754,0,0,0-.4-1.206h2.412a1.712,1.712,0,0,0,1.044-.252,1.031,1.031,0,0,0,.324-.864V-17.028H55.26v-12.24H69.408V-1.152a3.507,3.507,0,0,1-.99,2.754,4.789,4.789,0,0,1-3.222.882ZM38.664,2.52V-29.268H52.74v12.24H42.8V2.52Zm8.5-3.636V-14.76H60.912V-1.116Zm3.852-3.132H57.1v-2.3H51.012Zm0-5.112H57.1v-2.268H51.012Zm8.28-10.692h5.94v-1.8h-5.94Zm-16.488,0h5.9v-1.8H42.8Zm16.488-4.392h5.94v-1.764h-5.94Zm-16.488,0h5.9v-1.764H42.8Z" transform="matrix(0.995, -0.105, 0.105, 0.995, 7537.48, -12974.859)" fill="#6b5c54"/>
  </g>
</svg>
