<?xml version="1.0" standalone="no"?>
<!DOCTYPE svg PUBLIC "-//W3C//DTD SVG 20010904//EN"
 "http://www.w3.org/TR/2001/REC-SVG-20010904/DTD/svg10.dtd">
<svg version="1.0" xmlns="http://www.w3.org/2000/svg"
 width="506.000000pt" height="506.000000pt" viewBox="0 0 506.000000 506.000000"
 preserveAspectRatio="xMidYMid meet">
<metadata>
Created by potrace 1.14, written by Peter Selinger 2001-2017
</metadata>
<g transform="translate(0.000000,506.000000) scale(0.100000,-0.100000)"
fill="#000000" stroke="none">
<path d="M145 3811 c-8 -7 -5 -120 3 -124 4 -3 41 -8 82 -11 242 -21 241 -21
251 -37 11 -18 9 -2318 -2 -2325 -15 -9 -35 -11 -249 -30 -41 -3 -78 -8 -82
-11 -5 -2 -8 -31 -8 -64 l0 -59 600 0 600 0 0 59 c0 33 -3 62 -8 65 -4 2 -43
7 -87 10 -148 12 -246 23 -252 30 -2 2 -6 247 -9 545 l-5 541 38 1 c107 3 261
-3 305 -11 68 -13 160 -64 196 -109 58 -72 88 -152 137 -367 142 -622 145
-630 213 -699 74 -76 188 -107 387 -109 155 0 262 11 355 39 24 8 22 127 -2
131 -10 1 -59 5 -110 9 -98 8 -168 13 -180 14 -6 1 -24 55 -33 101 -2 8 -13
56 -25 105 -12 50 -23 97 -25 105 -20 98 -109 431 -129 485 -75 196 -213 309
-436 355 l-85 17 60 13 c252 53 442 160 563 315 60 76 102 216 102 335 -1 254
-115 442 -340 559 -84 44 -251 95 -345 105 -33 4 -69 10 -80 13 -23 7 -1394
11 -1400 4z m1240 -146 c33 -4 95 -20 138 -35 156 -57 252 -170 291 -337 14
-64 16 -278 2 -337 -54 -229 -224 -382 -460 -413 -28 -4 -123 -7 -211 -7
l-160 -1 2 559 c1 307 4 564 6 570 5 14 288 15 392 1z"/>
<path d="M2848 1879 c-14 -9 24 -29 56 -29 l24 0 -1 -297 c-2 -217 -5 -304
-14 -320 l-13 -22 -29 30 c-37 36 -83 39 -105 7 -15 -21 -14 -24 4 -43 16 -15
34 -20 74 -20 88 0 146 54 177 165 7 29 12 127 13 270 l2 225 34 5 c30 4 55
28 33 31 -34 5 -246 3 -255 -2z"/>
<path d="M3264 1733 c-67 -9 -141 -109 -97 -130 10 -5 24 -8 31 -7 6 1 16 2
22 3 5 0 17 26 25 56 16 52 18 55 48 55 49 -1 70 -23 77 -80 4 -32 2 -53 -4
-58 -6 -4 -45 -18 -86 -31 -96 -30 -140 -71 -140 -129 0 -94 117 -135 201 -69
l31 24 28 -29 c35 -35 90 -38 120 -8 22 22 26 40 10 40 -5 0 -10 -5 -10 -11 0
-6 -10 -9 -22 -7 -22 3 -23 7 -28 158 -5 160 -11 184 -52 209 -21 13 -105 21
-154 14z m109 -283 c-3 -66 -28 -92 -83 -88 -48 4 -66 39 -48 94 11 32 23 43
68 66 l55 27 5 -22 c3 -12 5 -46 3 -77z"/>
<path d="M3622 1713 c-72 -25 -86 -43 -32 -43 l29 0 1 -260 1 -260 -23 -1
c-13 -1 -27 -1 -31 0 -5 1 -7 -4 -5 -11 3 -9 36 -14 116 -15 93 -2 110 0 105
13 -3 8 -18 14 -34 14 -32 0 -29 -14 -31 142 0 31 4 54 11 56 6 2 11 -1 11 -6
0 -6 14 -15 31 -21 78 -27 156 0 202 71 50 77 46 214 -9 285 -31 41 -55 54
-108 58 -37 3 -56 -3 -140 -43 -5 -3 -6 0 -3 5 4 6 1 17 -6 25 -11 14 -20 13
-85 -9z m230 -37 c65 -49 64 -254 -1 -303 -20 -15 -86 -17 -112 -3 -17 10 -19
23 -19 150 0 132 1 140 22 154 27 19 87 20 110 2z"/>
<path d="M4177 1726 c-75 -27 -109 -79 -77 -118 15 -19 21 -21 43 -11 18 9 28
24 37 62 11 48 14 51 45 51 51 0 74 -26 79 -87 l4 -51 -81 -26 c-104 -33 -143
-63 -152 -115 -18 -106 104 -160 198 -88 l32 24 26 -28 c19 -21 36 -29 61 -29
39 0 78 24 78 48 0 12 -3 13 -12 4 -13 -13 -47 -16 -49 -4 -1 4 -3 69 -4 145
-3 148 -12 186 -52 212 -34 22 -128 28 -176 11z m128 -252 c-1 -67 -4 -79 -24
-95 -26 -21 -62 -24 -92 -9 -14 8 -19 21 -19 54 0 52 30 87 93 110 23 8 42 15
43 15 0 1 0 -33 -1 -75z"/>
<path d="M4578 1715 c-37 -12 -70 -20 -73 -17 -3 3 -5 -2 -5 -11 0 -12 9 -17
30 -17 17 0 31 -6 31 -12 1 -7 2 -78 3 -157 1 -135 0 -144 -19 -151 -11 -4
-23 -6 -27 -3 -5 2 -8 -3 -8 -11 0 -14 17 -16 105 -16 89 0 104 2 99 15 -4 8
-16 15 -28 15 -20 0 -21 4 -21 142 l0 142 39 26 c52 36 96 29 112 -18 10 -33
12 -278 2 -288 -3 -3 -15 -6 -27 -7 -11 -1 -21 -7 -21 -14 0 -10 26 -13 106
-13 80 0 105 3 102 13 -3 6 -16 14 -29 17 -24 5 -24 5 -24 130 1 148 -7 196
-41 230 -20 21 -33 25 -79 24 -46 -1 -62 -6 -95 -32 -21 -18 -41 -32 -44 -32
-3 0 -6 13 -6 29 0 17 -3 32 -7 34 -5 3 -38 -5 -75 -18z"/>
</g>
</svg>
