<?xml version="1.0" standalone="no"?>
<!DOCTYPE svg PUBLIC "-//W3C//DTD SVG 20010904//EN"
 "http://www.w3.org/TR/2001/REC-SVG-20010904/DTD/svg10.dtd">
<svg version="1.0" xmlns="http://www.w3.org/2000/svg"
 width="231.000000pt" height="231.000000pt" viewBox="0 0 231.000000 231.000000"
 preserveAspectRatio="xMidYMid meet">
<metadata>
Created by potrace 1.14, written by Peter Selinger 2001-2017
</metadata>
<g transform="translate(0.000000,231.000000) scale(0.100000,-0.100000)"
fill="#000000" stroke="none">
<path d="M1075 1903 c-11 -3 -27 -11 -35 -17 -8 -7 -26 -13 -40 -14 -75 -4
-87 -24 -95 -162 l-4 -84 -43 -13 c-83 -24 -98 -41 -103 -116 -2 -32 3 -28
-60 -53 -36 -14 -60 -33 -86 -68 -34 -45 -47 -53 -136 -86 l-98 -37 -115 29
c-110 28 -230 43 -230 29 0 -4 8 -25 19 -47 10 -21 55 -123 100 -226 l83 -187
-6 -83 c-4 -46 -9 -91 -12 -100 -7 -24 23 -26 143 -10 97 13 104 13 130 -6 16
-11 49 -22 74 -26 25 -4 57 -9 70 -11 13 -2 42 -6 64 -10 71 -10 288 -45 353
-56 55 -10 139 -8 207 5 48 9 382 62 445 71 25 4 65 20 90 36 39 26 51 29 92
24 63 -8 124 -9 136 -1 5 3 7 40 5 85 -3 54 0 87 8 103 8 13 14 25 14 28 1 3
11 27 23 53 12 27 22 50 22 52 0 2 13 32 29 67 16 35 47 104 68 153 l39 90
-40 2 c-23 1 -101 -13 -175 -31 l-135 -34 -100 36 c-119 42 -122 44 -129 81
-8 39 -50 77 -109 98 -38 13 -48 22 -48 39 0 46 -19 75 -62 94 -24 11 -53 20
-65 20 -15 0 -23 6 -24 18 -2 46 -9 130 -12 157 -9 63 -24 75 -87 77 -16 1
-30 5 -30 9 0 19 -89 33 -135 22z"/>
</g>
</svg>
